<svg clip-rule="evenodd" fill-rule="evenodd" stroke-linejoin="round" stroke-miterlimit="2" viewBox="0 0 560 400" xmlns="http://www.w3.org/2000/svg"><g fill="#61dafb"><path d="m415 200.028c0-17.887-22.399-34.837-56.741-45.349 7.925-35.002 4.403-62.85-11.117-71.765-3.577-2.092-7.76-3.082-12.327-3.082v12.273c2.531 0 4.567.495 6.273 1.43 7.485 4.293 10.732 20.638 8.201 41.662-.606 5.173-1.596 10.621-2.807 16.18-10.787-2.642-22.564-4.678-34.947-5.999-7.43-10.181-15.135-19.427-22.895-27.517 17.942-16.676 34.782-25.811 46.23-25.811v-12.273c-15.135 0-34.947 10.787-54.98 29.498-20.033-18.601-39.845-29.278-54.98-29.278v12.273c11.392 0 28.288 9.08 46.229 25.646-7.704 8.09-15.409 17.281-22.729 27.462-12.438 1.321-24.215 3.357-35.002 6.054-1.266-5.504-2.201-10.842-2.862-15.96-2.586-21.023.606-37.369 8.035-41.716 1.651-.991 3.798-1.431 6.329-1.431v-12.273c-4.623 0-8.805.991-12.438 3.082-15.464 8.916-18.931 36.708-10.951 71.6-34.232 10.567-56.521 27.462-56.521 45.294 0 17.886 22.399 34.836 56.741 45.348-7.925 35.002-4.403 62.85 11.117 71.765 3.577 2.092 7.76 3.082 12.383 3.082 15.134 0 34.947-10.787 54.979-29.498 20.033 18.601 39.845 29.278 54.98 29.278 4.623 0 8.805-.991 12.438-3.082 15.464-8.915 18.932-36.708 10.951-71.6 34.122-10.512 56.411-27.462 56.411-45.293zm-71.655-36.709c-2.036 7.1-4.568 14.419-7.43 21.739-2.256-4.403-4.623-8.805-7.209-13.208-2.532-4.403-5.229-8.696-7.925-12.878 7.815 1.155 15.354 2.586 22.564 4.347zm-25.206 58.612c-4.293 7.43-8.695 14.474-13.263 21.024-8.201.715-16.511 1.1-24.876 1.1-8.31 0-16.62-.385-24.766-1.045-4.567-6.55-9.025-13.539-13.318-20.914-4.183-7.209-7.98-14.529-11.447-21.903 3.412-7.375 7.264-14.75 11.392-21.959 4.293-7.43 8.695-14.474 13.263-21.023 8.201-.716 16.511-1.101 24.876-1.101 8.31 0 16.62.385 24.766 1.046 4.567 6.549 9.025 13.538 13.318 20.913 4.183 7.209 7.98 14.529 11.447 21.903-3.467 7.375-7.264 14.75-11.392 21.959zm17.776-7.154c2.972 7.374 5.504 14.749 7.595 21.904-7.21 1.761-14.804 3.247-22.674 4.402 2.696-4.237 5.393-8.585 7.925-13.043 2.531-4.403 4.898-8.86 7.154-13.263zm-55.805 58.722c-5.118-5.284-10.236-11.172-15.3-17.611 4.954.22 10.017.385 15.135.385 5.173 0 10.291-.11 15.3-.385-4.954 6.439-10.072 12.327-15.135 17.611zm-40.946-32.416c-7.815-1.155-15.354-2.586-22.564-4.347 2.036-7.1 4.568-14.419 7.43-21.739 2.256 4.403 4.623 8.805 7.209 13.208 2.587 4.403 5.229 8.696 7.925 12.878zm40.671-114.527c5.118 5.284 10.236 11.172 15.3 17.611-4.954-.22-10.017-.385-15.135-.385-5.173 0-10.291.11-15.3.385 4.953-6.439 10.072-12.327 15.135-17.611zm-40.726 32.416c-2.696 4.237-5.393 8.585-7.925 13.043-2.531 4.403-4.898 8.805-7.154 13.208-2.972-7.374-5.504-14.749-7.595-21.904 7.21-1.706 14.804-3.192 22.674-4.347zm-49.806 68.903c-19.482-8.31-32.085-19.207-32.085-27.847 0-8.641 12.603-19.593 32.085-27.848 4.733-2.036 9.906-3.852 15.244-5.559 3.137 10.787 7.265 22.014 12.383 33.517-5.063 11.447-9.135 22.619-12.217 33.351-5.449-1.706-10.622-3.578-15.41-5.614zm29.609 78.645c-7.485-4.293-10.732-20.638-8.201-41.662.606-5.173 1.596-10.621 2.807-16.18 10.787 2.642 22.564 4.678 34.947 5.999 7.43 10.181 15.135 19.427 22.895 27.517-17.942 16.676-34.782 25.812-46.23 25.812-2.476-.056-4.567-.551-6.218-1.486zm130.542-41.937c2.586 21.023-.606 37.369-8.035 41.716-1.651.991-3.798 1.431-6.329 1.431-11.392 0-28.288-9.08-46.229-25.646 7.704-8.09 15.409-17.281 22.729-27.462 12.438-1.321 24.215-3.357 35.002-6.054 1.266 5.559 2.256 10.897 2.862 16.015zm21.188-36.708c-4.733 2.036-9.906 3.852-15.245 5.559-3.137-10.787-7.264-22.014-12.382-33.517 5.063-11.447 9.135-22.619 12.217-33.351 5.449 1.707 10.622 3.578 15.465 5.614 19.482 8.31 32.085 19.207 32.085 27.848-.055 8.64-12.658 19.592-32.14 27.847z" fill-rule="nonzero"/><circle cx="279.945" cy="200.028" r="25.151"/></g></svg>